<svg width="100" height="100" viewBox="0 0 100 100" fill="none" xmlns="http://www.w3.org/2000/svg">
<path d="M50 8.33337C73 8.33337 91.6667 27 91.6667 50C91.6667 73 73 91.6667 50 91.6667C27 91.6667 8.33334 73 8.33334 50C8.33334 27 27 8.33337 50 8.33337ZM25.0958 64.2334C31.2125 73.3584 40.3958 79.1667 50.6667 79.1667C60.9333 79.1667 70.1208 73.3625 76.2333 64.2334C69.2989 57.7525 60.1581 54.1534 50.6667 54.1667C41.1738 54.1523 32.0313 57.7515 25.0958 64.2334ZM50 45.8334C53.3152 45.8334 56.4946 44.5164 58.8389 42.1722C61.1831 39.828 62.5 36.6486 62.5 33.3334C62.5 30.0182 61.1831 26.8387 58.8389 24.4945C56.4946 22.1503 53.3152 20.8334 50 20.8334C46.6848 20.8334 43.5054 22.1503 41.1612 24.4945C38.817 26.8387 37.5 30.0182 37.5 33.3334C37.5 36.6486 38.817 39.828 41.1612 42.1722C43.5054 44.5164 46.6848 45.8334 50 45.8334Z" fill="black"/>
</svg>
